<svg width="46" height="43" viewBox="0 0 46 43" fill="none" xmlns="http://www.w3.org/2000/svg">
<path fill-rule="evenodd" clip-rule="evenodd" d="M6.89991 42.1H39.1C41.6898 42.1 43.5298 40.9707 44.6476 39.4182C45.678 37.9853 46 36.3362 46 35.2V21.4C46 20.79 45.7577 20.205 45.3263 19.7736C44.895 19.3423 44.31 19.1 43.7 19.1H36.8V7.59997C36.8 5.76997 36.073 4.01492 34.779 2.72092C33.485 1.42692 31.73 0.699951 29.9 0.699951H6.89991C5.06991 0.699951 3.31486 1.42692 2.02086 2.72092C0.726857 4.01492 -0.000106812 5.76997 -0.000106812 7.59997V35.2C-0.000106812 36.3339 0.321894 37.9853 1.3523 39.4182C2.4701 40.973 4.3101 42.1 6.89991 42.1ZM39.1 23.7C39.71 23.7 40.295 23.9423 40.7263 24.3737C41.1577 24.805 41.4 25.39 41.4 26V35.2C41.4 35.81 41.1577 36.395 40.7263 36.8264C40.295 37.2577 39.71 37.5 39.1 37.5C38.49 37.5 37.905 37.2577 37.4736 36.8264C37.0423 36.395 36.8 35.81 36.8 35.2V26C36.8 25.39 37.0423 24.805 37.4736 24.3737C37.905 23.9423 38.49 23.7 39.1 23.7ZM16.0999 16.8C16.0999 16.19 16.3423 15.605 16.7736 15.1736C17.2049 14.7423 17.7899 14.5 18.3999 14.5C19.0099 14.5 19.5949 14.7423 20.0263 15.1736C20.4576 15.605 20.6999 16.19 20.6999 16.8C20.6999 17.41 20.4576 17.995 20.0263 18.4263C19.5949 18.8577 19.0099 19.1 18.3999 19.1C17.7899 19.1 17.2049 18.8577 16.7736 18.4263C16.3423 17.995 16.0999 17.41 16.0999 16.8ZM18.3999 9.89997C16.5699 9.89997 14.8149 10.6269 13.5209 11.9209C12.2269 13.2149 11.4999 14.97 11.4999 16.8C11.4999 18.63 12.2269 20.385 13.5209 21.679C14.8149 22.973 16.5699 23.7 18.3999 23.7C20.2299 23.7 21.985 22.973 23.279 21.679C24.573 20.385 25.2999 18.63 25.2999 16.8C25.2999 14.97 24.573 13.2149 23.279 11.9209C21.985 10.6269 20.2299 9.89997 18.3999 9.89997ZM11.4999 28.3C10.8899 28.3 10.3049 28.5423 9.87357 28.9737C9.44223 29.405 9.19991 29.99 9.19991 30.6C9.19991 31.21 9.44223 31.795 9.87357 32.2264C10.3049 32.6577 10.8899 32.9 11.4999 32.9H25.2999C25.9099 32.9 26.495 32.6577 26.9263 32.2264C27.3576 31.795 27.6 31.21 27.6 30.6C27.6 29.99 27.3576 29.405 26.9263 28.9737C26.495 28.5423 25.9099 28.3 25.2999 28.3H11.4999Z" fill="white"/>
</svg>
