<svg width="39" height="38" viewBox="0 0 39 38" fill="none" xmlns="http://www.w3.org/2000/svg">
<path d="M29.5 1.81251C29.5005 1.52782 29.4165 1.2494 29.2586 1.01253C29.1006 0.775662 28.8759 0.591017 28.613 0.482004C28.35 0.372991 28.0605 0.34452 27.7814 0.400199C27.5022 0.455879 27.2458 0.593202 27.0448 0.794759L21.2948 6.54476C21.1613 6.6785 21.0556 6.83723 20.9836 7.01186C20.9116 7.18649 20.8747 7.37361 20.875 7.56251V15.5924L18.7446 17.7199C18.3185 17.6068 17.872 17.593 17.4397 17.6797C17.0073 17.7663 16.6007 17.951 16.251 18.2196C15.9013 18.4882 15.6179 18.8335 15.4227 19.2288C15.2275 19.6242 15.1257 20.0591 15.125 20.5C15.1252 20.9092 15.2127 21.3136 15.3817 21.6862C15.5507 22.0588 15.7973 22.3911 16.105 22.6607C16.4127 22.9304 16.7744 23.1313 17.1659 23.25C17.5575 23.3687 17.9699 23.4025 18.3755 23.3491C18.7812 23.2956 19.1707 23.1562 19.5182 22.9402C19.8656 22.7241 20.163 22.4364 20.3903 22.0962C20.6177 21.756 20.7698 21.3712 20.8365 20.9676C20.9032 20.5639 20.883 20.1506 20.7773 19.7554L22.9076 17.625H30.9375C31.1264 17.6253 31.3135 17.5884 31.4881 17.5164C31.6628 17.4444 31.8215 17.3387 31.9553 17.2053L37.7052 11.4553C37.9068 11.2542 38.0441 10.9978 38.0998 10.7187C38.1555 10.4395 38.127 10.15 38.018 9.88705C37.909 9.62407 37.7243 9.39937 37.4875 9.24145C37.2506 9.08353 36.9722 8.9995 36.6875 9.00001H29.5V1.81251ZM35.089 18.1368C35.5837 21.7166 34.9416 25.3614 33.2533 28.5567C31.5651 31.752 28.9159 34.3364 25.6798 35.945C22.4437 37.5536 18.784 38.1053 15.2175 37.522C11.651 36.9388 8.35776 35.2502 5.80261 32.6946C3.24746 30.1389 1.55949 26.8453 0.976966 23.2787C0.394444 19.7121 0.946795 16.0526 2.55605 12.8168C4.1653 9.58095 6.75018 6.93229 9.9458 5.24464C13.1414 3.55699 16.7864 2.9156 20.3661 3.41101L19.265 4.51213C18.8641 4.91255 18.546 5.38804 18.329 5.91144C18.1119 6.43484 18.0001 6.99589 18 7.56251C15.4412 7.56251 12.9399 8.32128 10.8123 9.74287C8.68475 11.1645 7.02652 13.185 6.04731 15.549C5.0681 17.9131 4.8119 20.5144 5.31109 23.024C5.81029 25.5336 7.04246 27.8389 8.85181 29.6482C10.6611 31.4575 12.9664 32.6897 15.476 33.1889C17.9856 33.6881 20.5869 33.4319 22.951 32.4527C25.315 31.4735 27.3355 29.8153 28.7571 27.6877C30.1787 25.5601 30.9375 23.0588 30.9375 20.5C32.0809 20.499 33.177 20.044 33.985 19.235L35.089 18.1368ZM18 10.4375C16.0098 10.4375 14.0643 11.0277 12.4096 12.1333C10.7548 13.239 9.46507 14.8106 8.70346 16.6493C7.94186 18.4879 7.74259 20.5112 8.13085 22.4631C8.51911 24.415 9.47747 26.208 10.8847 27.6153C12.292 29.0225 14.085 29.9809 16.0369 30.3692C17.9888 30.7574 20.0121 30.5582 21.8508 29.7965C23.6894 29.0349 25.261 27.7452 26.3667 26.0904C27.4723 24.4357 28.0625 22.4902 28.0625 20.5H24.0979L23.7385 20.8594C23.6694 21.9639 23.283 23.025 22.6258 23.9153C21.9685 24.8056 21.0683 25.4874 20.0331 25.8787C18.998 26.2701 17.8719 26.3544 16.79 26.1216C15.7081 25.8888 14.7164 25.3487 13.9339 24.5661C13.1513 23.7836 12.6113 22.7919 12.3784 21.71C12.1456 20.6281 12.2299 19.502 12.6213 18.4669C13.0126 17.4317 13.6944 16.5315 14.5847 15.8743C15.475 15.217 16.5361 14.8306 17.6406 14.7615L18 14.4021V10.4375Z" fill="white"/>
</svg>
