<svg width="42" height="41" viewBox="0 0 42 41" fill="none" xmlns="http://www.w3.org/2000/svg">
<path d="M40.2841 14.75L15.25 39.7823C14.983 40.0493 14.6661 40.2611 14.3172 40.4057C13.9683 40.5502 13.5944 40.6246 13.2168 40.6246C12.8392 40.6246 12.4653 40.5502 12.1165 40.4057C11.7676 40.2611 11.4507 40.0493 11.1837 39.7823L1.71594 30.3163C1.4489 30.0493 1.23707 29.7324 1.09255 29.3835C0.948024 29.0347 0.873638 28.6608 0.873638 28.2832C0.873638 27.9056 0.948024 27.5316 1.09255 27.1828C1.23707 26.8339 1.4489 26.517 1.71594 26.25L6.95742 21.0085C7.02418 20.9417 7.10345 20.8887 7.1907 20.8525C7.27796 20.8163 7.37148 20.7977 7.46594 20.7977C7.56039 20.7977 7.65392 20.8163 7.74118 20.8525C7.82843 20.8887 7.9077 20.9417 7.97445 21.0085L14.233 27.267C14.3727 27.4067 14.5398 27.5161 14.7237 27.5883C14.9076 27.6605 15.1044 27.694 15.3019 27.6868C15.4993 27.6795 15.6932 27.6316 15.8713 27.5461C16.0494 27.4606 16.208 27.3393 16.3371 27.1898C16.5732 26.905 16.6932 26.5417 16.6732 26.1723C16.6532 25.8029 16.4947 25.4547 16.2293 25.197L10.0067 18.9744C9.8723 18.8397 9.79682 18.6572 9.79682 18.4668C9.79682 18.2765 9.8723 18.094 10.0067 17.9592L12.702 15.2639C12.7688 15.1971 12.8481 15.1441 12.9353 15.1079C13.0226 15.0717 13.1161 15.0531 13.2105 15.0531C13.305 15.0531 13.3985 15.0717 13.4858 15.1079C13.573 15.1441 13.6523 15.1971 13.7191 15.2639L19.9776 21.5224C20.1173 21.6621 20.2844 21.7714 20.4683 21.8437C20.6522 21.9159 20.849 21.9494 21.0465 21.9422C21.2439 21.9349 21.4378 21.887 21.6159 21.8015C21.794 21.716 21.9526 21.5947 22.0817 21.4451C22.3178 21.1604 22.4378 20.797 22.4178 20.4277C22.3979 20.0583 22.2393 19.7101 21.9739 19.4524L15.7585 13.2244C15.6241 13.0897 15.5486 12.9072 15.5486 12.7168C15.5486 12.5265 15.6241 12.344 15.7585 12.2092L18.4538 9.5139C18.5886 9.37948 18.7711 9.304 18.9614 9.304C19.1518 9.304 19.3343 9.37948 19.4691 9.5139L25.7276 15.7724C25.8674 15.9124 26.0345 16.022 26.2186 16.0944C26.4027 16.1668 26.5997 16.2004 26.7974 16.1931C26.9951 16.1859 27.1891 16.1379 27.3674 16.0522C27.5457 15.9665 27.7044 15.845 27.8335 15.6951C28.0694 15.4102 28.1891 15.0467 28.1688 14.6773C28.1484 14.308 27.9896 13.9598 27.7239 13.7024L21.5085 7.47445C21.3741 7.3397 21.2986 7.15715 21.2986 6.96683C21.2986 6.77651 21.3741 6.59395 21.5085 6.45921L26.75 1.21773C27.017 0.950689 27.3339 0.73886 27.6828 0.594336C28.0317 0.449813 28.4056 0.375427 28.7832 0.375427C29.1608 0.375427 29.5347 0.449813 29.8835 0.594336C30.2324 0.73886 30.5494 0.950689 30.8163 1.21773L40.2841 10.6837C40.5511 10.9506 40.7629 11.2676 40.9075 11.6165C41.052 11.9653 41.1264 12.3392 41.1264 12.7168C41.1264 13.0944 41.052 13.4683 40.9075 13.8172C40.7629 14.166 40.5511 14.483 40.2841 14.75Z" fill="white"/>
</svg>
