<svg width="39" height="37" viewBox="0 0 39 37" fill="none" xmlns="http://www.w3.org/2000/svg">
<path d="M20.15 0.0999756C19.845 0.0999756 19.5525 0.221136 19.3368 0.436803C19.1212 0.65247 19 0.944977 19 1.24998V7.22998C19 10.3971 21.1321 13.0628 24.037 13.877C23.531 20.179 21.7094 24.8825 20.2167 27.7828C20.6399 28.2796 21.0378 28.6499 21.3483 28.9098C22.542 29.908 23.6 31.5341 23.6 33.5627C23.6015 34.7636 23.2178 35.9333 22.5052 36.9H35.1C36.015 36.9 36.8925 36.5365 37.5395 35.8895C38.1865 35.2425 38.55 34.365 38.55 33.45V32.7439C38.55 31.9435 38.2763 31.2052 37.8554 30.6003C36.6134 28.8132 33.0967 23.0333 32.3607 13.8747C33.8104 13.4683 35.0875 12.599 35.9973 11.3994C36.9071 10.1998 37.3997 8.73558 37.4 7.22998V1.24998C37.4 0.944977 37.2788 0.65247 37.0632 0.436803C36.8475 0.221136 36.555 0.0999756 36.25 0.0999756H34.525C34.0675 0.0999756 33.6287 0.281716 33.3052 0.605216C32.9817 0.928716 32.8 1.36748 32.8 1.82498V3.54998C32.8003 3.701 32.7709 3.8506 32.7133 3.99024C32.6558 4.12988 32.5714 4.25682 32.4648 4.36382C32.2496 4.57992 31.9573 4.70167 31.6523 4.70228C31.3473 4.70289 31.0546 4.58231 30.8385 4.36707C30.6224 4.15184 30.5006 3.85957 30.5 3.55458V3.54998L30.4908 1.81578C30.4884 1.35987 30.3056 0.923473 29.9823 0.601959C29.6591 0.280446 29.2217 0.0999691 28.7658 0.0999756H27.6342C27.1783 0.0999691 26.7409 0.280446 26.4177 0.601959C26.0944 0.923473 25.9116 1.35987 25.9092 1.81578L25.9 3.55458C25.8994 3.85957 25.7776 4.15184 25.5615 4.36707C25.3454 4.58231 25.0527 4.70289 24.7477 4.70228C24.4427 4.70167 24.1504 4.57992 23.9352 4.36382C23.72 4.14772 23.5994 3.85497 23.6 3.54998V1.82498C23.6 1.36748 23.4183 0.928716 23.0948 0.605216C22.7713 0.281716 22.3325 0.0999756 21.875 0.0999756H20.15ZM10.95 6.99998C9.61802 7.00001 8.31452 7.38556 7.19684 8.1101C6.07916 8.83465 5.19508 9.8672 4.65131 11.0831C4.10755 12.2991 3.92734 13.6464 4.13245 14.9625C4.33756 16.2786 4.91921 17.5072 5.8072 18.5H5.2C4.59 18.5 4.00499 18.7423 3.57365 19.1736C3.14232 19.605 2.9 20.19 2.9 20.8C2.9 21.41 3.14232 21.995 3.57365 22.4263C4.00499 22.8577 4.59 23.1 5.2 23.1H6.396C5.5404 27.2354 3.2841 29.6228 2.026 30.6739C1.2302 31.3409 0.599998 32.3667 0.599998 33.5627C0.599998 35.405 2.095 36.9 3.9373 36.9H17.965C19.805 36.9 21.3 35.405 21.3 33.5627C21.3 32.3667 20.6698 31.3409 19.874 30.6739C18.6159 29.6228 16.3596 27.2354 15.504 23.1H16.7C17.31 23.1 17.895 22.8577 18.3263 22.4263C18.7577 21.995 19 21.41 19 20.8C19 20.19 18.7577 19.605 18.3263 19.1736C17.895 18.7423 17.31 18.5 16.7 18.5H16.0928C16.9808 17.5072 17.5624 16.2786 17.7675 14.9625C17.9727 13.6464 17.7924 12.2991 17.2487 11.0831C16.7049 9.8672 15.8208 8.83465 14.7032 8.1101C13.5855 7.38556 12.282 7.00001 10.95 6.99998Z" fill="white"/>
</svg>
